<svg xmlns="http://www.w3.org/2000/svg" viewBox="0 0 120 120">
  <defs>
    <linearGradient id="bg" x1="0" y1="0" x2="1" y2="1">
      <stop offset="0%" stop-color="#ff8a65"/>
      <stop offset="100%" stop-color="#e53935"/>
    </linearGradient>
  </defs>
  <circle cx="60" cy="60" r="58" fill="url(#bg)"/>
  <circle cx="60" cy="67" r="28" fill="#ffd7b3"/>
  <path d="M28 48c8-18 56-18 64 0-2 8-10 15-32 15S30 56 28 48z" fill="#f4c542"/>
  <path d="M34 47c8-10 44-10 52 0" stroke="#7b4a12" stroke-width="6" stroke-linecap="round"/>
  <circle cx="49" cy="67" r="3.5" fill="#1b1b1b"/>
  <circle cx="71" cy="67" r="3.5" fill="#1b1b1b"/>
  <path d="M52 79c6 5 10 5 16 0" stroke="#1b1b1b" stroke-width="4" fill="none" stroke-linecap="round"/>
  <path d="M42 58c5-5 9-7 14-7" stroke="#8d5a3b" stroke-width="3" fill="none" stroke-linecap="round"/>
  <path d="M78 58c-5-5-9-7-14-7" stroke="#8d5a3b" stroke-width="3" fill="none" stroke-linecap="round"/>
</svg>
