<svg xmlns="http://www.w3.org/2000/svg" viewBox="0 0 120 120">
  <defs>
    <linearGradient id="bg" x1="0" y1="0" x2="1" y2="1">
      <stop offset="0%" stop-color="#7ed957"/>
      <stop offset="100%" stop-color="#1b8f4b"/>
    </linearGradient>
  </defs>
  <circle cx="60" cy="60" r="58" fill="url(#bg)"/>
  <circle cx="60" cy="67" r="28" fill="#f4cfb1"/>
  <path d="M35 44c10-12 40-12 50 0 0 10-10 18-25 18S35 54 35 44z" fill="#173f2a"/>
  <path d="M41 44c5-7 33-7 38 0" stroke="#0d2d1b" stroke-width="6" stroke-linecap="round"/>
  <circle cx="49" cy="67" r="3.5" fill="#1b1b1b"/>
  <circle cx="71" cy="67" r="3.5" fill="#1b1b1b"/>
  <path d="M52 79c6-4 10-4 16 0" stroke="#1b1b1b" stroke-width="4" fill="none" stroke-linecap="round"/>
  <path d="M46 58l-6 8" stroke="#8a4d2c" stroke-width="2.5" stroke-linecap="round"/>
  <path d="M80 58l6 8" stroke="#8a4d2c" stroke-width="2.5" stroke-linecap="round"/>
  <rect x="56" y="35" width="8" height="18" rx="4" fill="#a0a0a0" opacity="0.9"/>
</svg>
